HIERARCHY
ROOT joint_Root
{
	OFFSET 0.0 0.0 0.0
	CHANNELS 6 Xposition Yposition Zposition Zrotation Xrotation Yrotation 
	JOINT Hips
	{
		OFFSET -0.726466 93.3139 -2.00062
		CHANNELS 6 Xposition Yposition Zposition Zrotation Xrotation Yrotation 
		JOINT Spine
		{
			OFFSET 15.7357 0.0 0.0
			CHANNELS 6 Xposition Yposition Zposition Zrotation Xrotation Yrotation 
			JOINT Chest
			{
				OFFSET 8.98455 -0.406207 0.0
				CHANNELS 6 Xposition Yposition Zposition Zrotation Xrotation Yrotation 
				JOINT Neck
				{
					OFFSET 16.3773 0.0 0.0
					CHANNELS 6 Xposition Yposition Zposition Zrotation Xrotation Yrotation 
					JOINT Head
					{
						OFFSET 6.45672 0.0 0.0
						CHANNELS 6 Xposition Yposition Zposition Zrotation Xrotation Yrotation 
						End Site
						{
							OFFSET 0.0 0.0 0.0
						}
					}
				}
				JOINT Shoulder_L
				{
					OFFSET 12.9942 -0.242716 4.98039
					CHANNELS 6 Xposition Yposition Zposition Zrotation Xrotation Yrotation 
					JOINT UpperArm_L
					{
						OFFSET 5.34809 0.0 0.0
						CHANNELS 6 Xposition Yposition Zposition Zrotation Xrotation Yrotation 
						JOINT LowerArm_L
						{
							OFFSET 24.3286 1.87007e-05 0.0
							CHANNELS 6 Xposition Yposition Zposition Zrotation Xrotation Yrotation 
							JOINT Hand_L
							{
								OFFSET 22.2916 0.0 0.0
								CHANNELS 6 Xposition Yposition Zposition Zrotation Xrotation Yrotation 
								End Site
								{
									OFFSET 0.0 0.0 0.0
								}
							}
						}
					}
				}
				JOINT Shoulder_R
				{
					OFFSET 12.9945 -0.242716 -4.98039
					CHANNELS 6 Xposition Yposition Zposition Zrotation Xrotation Yrotation 
					JOINT UpperArm_R
					{
						OFFSET -5.34813 0.0 0.0
						CHANNELS 6 Xposition Yposition Zposition Zrotation Xrotation Yrotation 
						JOINT LowerArm_R
						{
							OFFSET -24.3289 0.000322201 0.0
							CHANNELS 6 Xposition Yposition Zposition Zrotation Xrotation Yrotation 
							JOINT Hand_R
							{
								OFFSET -22.2915 -0.000108084 0.0
								CHANNELS 6 Xposition Yposition Zposition Zrotation Xrotation Yrotation 
								End Site
								{
									OFFSET 0.0 0.0 0.0
								}
							}
						}
					}
				}
			}
		}
		JOINT UpperLeg_L
		{
			OFFSET -2.19248 -6.46944 0.0
			CHANNELS 6 Xposition Yposition Zposition Zrotation Xrotation Yrotation 
			JOINT LowerLeg_L
			{
				OFFSET 39.0811 0.0 -1.23785e-05
				CHANNELS 6 Xposition Yposition Zposition Zrotation Xrotation Yrotation 
				JOINT Foot_L
				{
					OFFSET 40.9854 0.0 -1.26872e-05
					CHANNELS 6 Xposition Yposition Zposition Zrotation Xrotation Yrotation 
					JOINT Toes_L
					{
						OFFSET 11.7543 0.0 0.0
						CHANNELS 6 Xposition Yposition Zposition Zrotation Xrotation Yrotation 
						End Site
						{
							OFFSET 0.0 0.0 0.0
						}
					}
				}
			}
		}
		JOINT UpperLeg_R
		{
			OFFSET -2.19251 6.46944 0.0
			CHANNELS 6 Xposition Yposition Zposition Zrotation Xrotation Yrotation 
			JOINT LowerLeg_R
			{
				OFFSET -39.0811 -0.00228153 -0.0401928
				CHANNELS 6 Xposition Yposition Zposition Zrotation Xrotation Yrotation 
				JOINT Foot_R
				{
					OFFSET -40.9854 0.0 0.0
					CHANNELS 6 Xposition Yposition Zposition Zrotation Xrotation Yrotation 
					JOINT Toes_R
					{
						OFFSET -11.7543 0.0 0.0
						CHANNELS 6 Xposition Yposition Zposition Zrotation Xrotation Yrotation 
						End Site
						{
							OFFSET 0.0 0.0 0.0
						}
					}
				}
			}
		}
	}
}
MOTION
Frames:	4
Frame Time:	0.0333333
0.000000 0.000000 0.000000 0.000000 0.000000 -0.000000 -218.916000 91.419800 190.531000 84.307800 86.259700 7.766210 15.735700 0.000005 -0.000001 95.638900 81.819900 -94.061300 8.984550 -0.406207 -0.000000 8.497110 1.609950 3.032820 16.377300 -0.000001 -0.000001 6.386770 -1.426130 0.235880 6.456720 -0.000001 -0.000000 1.293500 -3.580570 -2.666680 12.994200 -0.242716 4.980390 -88.942300 -2.388970 -66.110500 5.348090 -0.000007 -0.000001 -64.811700 36.176900 -1.166640 24.328600 0.000019 0.000005 4.782220 5.649420 -40.359200 22.291600 -0.000001 0.000005 1.378730 5.538720 -8.184650 12.994500 -0.242716 -4.980390 89.595400 1.060100 -69.109700 -5.348130 -0.000001 -0.000004 -47.070800 30.878800 -29.330800 -24.328900 0.000322 -0.000009 3.305160 3.515770 -43.291000 -22.291500 -0.000108 -0.000004 2.851900 5.522720 -7.478070 -2.192480 -6.469440 -0.000000 -175.841000 -11.919400 -17.638700 39.081100 -0.000007 -0.000012 0.058193 -0.050968 48.784800 40.985400 -0.000006 -0.000013 1.035250 -5.907780 -59.415000 11.754300 -0.000000 0.000003 -0.005083 -0.062272 -19.110600 -2.192510 6.469440 -0.000001 -177.646000 19.835000 170.367000 -39.081100 -0.002282 -0.040193 0.028803 -0.047584 28.184300 -40.985400 0.000008 0.000006 7.135080 1.199570 -67.796100 -11.754300 -0.000006 -0.000006 -0.007573 -0.084507 -20.013900
0.000000 0.000000 0.000000 0.000000 0.000000 -0.000000 -216.755000 91.568700 190.623000 84.040100 85.290400 8.103120 15.735700 0.000005 -0.000001 98.121300 81.770400 -96.632700 8.984550 -0.406207 -0.000000 8.504710 2.323680 2.801900 16.377300 -0.000001 -0.000001 6.100320 -1.308930 0.128639 6.456720 -0.000001 -0.000000 1.140690 -3.980170 -2.817590 12.994200 -0.242716 4.980390 -88.869500 -2.471390 -65.409400 5.348090 -0.000007 -0.000001 -65.982100 35.714200 1.929620 24.328600 0.000019 0.000005 4.444100 5.281630 -40.174200 22.291600 -0.000001 0.000005 1.334250 5.543000 -8.380020 12.994500 -0.242716 -4.980390 89.625300 1.007630 -69.601200 -5.348130 -0.000001 -0.000004 -43.174500 30.347200 -34.660600 -24.328900 0.000322 -0.000009 3.512080 3.623560 -44.168800 -22.291500 -0.000108 -0.000004 3.041960 5.527250 -7.674400 -2.192480 -6.469440 -0.000000 -176.743000 -12.838800 -19.131000 39.081100 -0.000007 -0.000012 0.034850 -0.039982 41.075000 40.985400 -0.000006 -0.000013 1.189870 -6.825600 -58.626500 11.754300 -0.000000 0.000003 -0.005160 -0.063009 -19.140600 -2.192510 6.469440 -0.000001 -178.162000 19.339400 172.954000 -39.081100 -0.002282 -0.040193 0.025995 -0.045481 26.509700 -40.985400 0.000008 0.000006 6.759140 1.691760 -68.484600 -11.754300 -0.000006 -0.000006 -0.007796 -0.086361 -20.089600
0.000000 0.000000 0.000000 0.000000 0.000000 -0.000000 -214.540000 91.493800 190.760000 80.999300 84.263700 11.295400 15.735700 0.000005 -0.000001 100.270000 81.650900 -98.788200 8.984550 -0.406207 -0.000000 8.636420 2.973640 2.736100 16.377300 -0.000001 -0.000001 5.871890 -1.116630 0.071853 6.456720 -0.000001 -0.000000 1.022530 -4.206170 -2.894350 12.994200 -0.242716 4.980390 -88.772700 -2.606690 -64.776400 5.348090 -0.000007 -0.000001 -67.205700 35.010400 4.650260 24.328600 0.000019 0.000005 4.490800 5.435270 -39.664500 22.291600 -0.000001 0.000005 1.005590 5.536650 -8.091080 12.994500 -0.242716 -4.980390 89.643100 0.982376 -70.035500 -5.348130 -0.000001 -0.000004 -39.731300 29.274500 -39.595100 -24.328900 0.000322 -0.000009 3.929890 4.037780 -44.301500 -22.291500 -0.000108 -0.000004 3.212850 5.529670 -7.780730 -2.192480 -6.469440 -0.000000 -177.079000 -13.967900 -19.886800 39.081100 -0.000007 -0.000012 0.019922 -0.031282 32.489800 40.985400 -0.000006 -0.000013 0.925942 -6.655390 -57.835400 11.754300 -0.000000 0.000003 -0.004953 -0.061019 -19.059500 -2.192510 6.469440 -0.000001 -178.421000 18.599300 175.335000 -39.081100 -0.002282 -0.040193 0.011073 -0.016243 25.539800 -40.985400 0.000008 0.000006 6.149900 1.958210 -69.526200 -11.754300 -0.000006 -0.000006 -0.007897 -0.087191 -20.123500
0.000000 0.000000 0.000000 0.000000 0.000000 -0.000000 -212.180000 91.218600 190.924000 76.287400 83.020800 16.122300 15.735700 0.000005 -0.000001 102.369000 81.543200 -100.811000 8.984550 -0.406207 -0.000000 8.720400 3.617910 2.838340 16.377300 -0.000001 -0.000001 5.766210 -0.830737 0.052036 6.456720 -0.000001 -0.000000 1.041250 -4.308750 -2.871990 12.994200 -0.242716 4.980390 -88.613100 -2.883580 -64.300100 5.348090 -0.000007 -0.000001 -68.615500 34.307700 7.188190 24.328600 0.000019 0.000005 4.347040 5.458430 -38.629000 22.291600 -0.000001 0.000005 0.802178 5.534830 -8.009370 12.994500 -0.242716 -4.980390 89.722700 0.779763 -70.422100 -5.348130 -0.000001 -0.000004 -37.447900 28.030700 -43.719400 -24.328900 0.000322 -0.000009 4.236550 4.436400 -43.768900 -22.291500 -0.000108 -0.000004 3.300060 5.529070 -7.754110 -2.192480 -6.469440 -0.000000 -176.769000 -15.287700 -20.620300 39.081100 -0.000007 -0.000012 0.007089 -0.015627 24.401300 40.985400 -0.000006 -0.000013 -0.211210 -4.629710 -56.683400 11.754300 -0.000000 0.000003 -0.004731 -0.058846 -18.970900 -2.192510 6.469440 -0.000001 -178.366000 17.805700 177.513000 -39.081100 -0.002282 -0.040193 -0.008650 0.025545 25.092400 -40.985400 0.000008 0.000006 5.350500 2.285460 -70.872100 -11.754300 -0.000006 -0.000006 -0.007698 -0.085551 -20.056500
